# xmcd
#
# Track frame offsets:
#	150
#	12161
#	27544
#	38328
#	50349
#	62604
#	76143
#	90609
#	103029
#	112422
#	128038
#	147982
#
# Disc length: 2209 seconds
#
# Revision: 1
# Processed by: cddbd v1.5.2PL0 Copyright (c) Steve Scherf et al.
# Submitted via: EasyCDDAExtractor 2010.4.0.0
#
DISCID=98089f0c
DTITLE=Moo'd Swing - It's About Time...
DYEAR=2008
DGENRE=Swing
TTITLE0=Whispering  listen
TTITLE1=Don’t Fence Me In 
TTITLE2=Kathryn Crossing the Danforth
TTITLE3=Sentimental Journey
TTITLE4=Glow Worm
TTITLE5=Java Jive
TTITLE6=That’s a Plenty
TTITLE7=Walking My Baby Back Home
TTITLE8=The Rick Speyer Stomp
TTITLE9=Shine on Harvest Moon/Lazy River
TTITLE10=Home in Pasadena
TTITLE11=Bye Bye Blackbird
EXTD=
EXTT0=
EXTT1=
EXTT2=
EXTT3=
EXTT4=
EXTT5=
EXTT6=
EXTT7=
EXTT8=
EXTT9=
EXTT10=
EXTT11=
PLAYORDER=
